<svg xmlns="http://www.w3.org/2000/svg" viewBox="0 0 512 160" width="200" height="60">
  <!-- Blood Drop Icon -->
  <g transform="translate(10, 10) scale(0.3)">
    <path d="M256 0C230 150 160 250 160 350C160 440 200 512 256 512C312 512 352 440 352 350C352 250 282 150 256 0Z" fill="#e74c3c"/>
    <path d="M256 0C230 150 160 250 160 350C160 395 175 437 200 465C175 437 160 395 160 350C160 250 230 150 256 0Z" fill="#c0392b"/>
    <path d="M200 350C200 300 220 250 240 200C220 250 200 300 200 350C200 400 220 450 256 475C220 450 200 400 200 350Z" fill="#f5f5f5" opacity="0.3"/>
  </g>
  
  <!-- Text: Blood Bank -->
  <text x="170" y="85" font-family="Arial, sans-serif" font-weight="bold" font-size="48" fill="#333">
    <tspan fill="#e74c3c">Blood</tspan>
    <tspan fill="#333">Bank</tspan>
  </text>
  
  <!-- Tagline -->
  <text x="170" y="115" font-family="Arial, sans-serif" font-size="16" fill="#666">
    Saving Lives Together
  </text>
</svg>