<svg xmlns="http://www.w3.org/2000/svg" viewBox="0 0 512 512" width="100" height="100">
  <!-- Blood Drop Shape -->
  <path d="M256 0C230 150 160 250 160 350C160 440 200 512 256 512C312 512 352 440 352 350C352 250 282 150 256 0Z" fill="#e74c3c"/>
  
  <!-- Highlight/Shine -->
  <path d="M256 0C230 150 160 250 160 350C160 395 175 437 200 465C175 437 160 395 160 350C160 250 230 150 256 0Z" fill="#c0392b"/>
  
  <!-- Reflection -->
  <path d="M200 350C200 300 220 250 240 200C220 250 200 300 200 350C200 400 220 450 256 475C220 450 200 400 200 350Z" fill="#f5f5f5" opacity="0.3"/>
</svg>