<svg xmlns="http://www.w3.org/2000/svg" viewBox="0 0 32 32" width="32" height="32">
  <!-- Blood Drop Shape -->
  <path d="M16 0C14.5 9.5 10 15.5 10 22C10 27.5 12.5 32 16 32C19.5 32 22 27.5 22 22C22 15.5 17.5 9.5 16 0Z" fill="#e74c3c"/>
  
  <!-- Highlight/Shine -->
  <path d="M16 0C14.5 9.5 10 15.5 10 22C10 24.5 11 27 12.5 29C11 27 10 24.5 10 22C10 15.5 14.5 9.5 16 0Z" fill="#c0392b"/>
  
  <!-- Reflection -->
  <path d="M12.5 22C12.5 19 14 15.5 15 12.5C14 15.5 12.5 19 12.5 22C12.5 25 14 28 16 29.5C14 28 12.5 25 12.5 22Z" fill="#f5f5f5" opacity="0.3"/>
</svg>