<svg xmlns="http://www.w3.org/2000/svg" viewBox="0 0 200 200" width="200" height="200">
  <style>
    @keyframes pulse {
      0% { transform: scale(1); opacity: 1; }
      50% { transform: scale(1.1); opacity: 0.8; }
      100% { transform: scale(1); opacity: 1; }
    }
    
    @keyframes drip {
      0% { transform: translateY(0); opacity: 0; }
      20% { opacity: 1; }
      100% { transform: translateY(80px); opacity: 0; }
    }
    
    @keyframes rotate {
      0% { transform: rotate(0deg); }
      100% { transform: rotate(360deg); }
    }
    
    .blood-drop {
      animation: pulse 2s infinite ease-in-out;
      transform-origin: center;
    }
    
    .drip-1 {
      animation: drip 2s infinite ease-in;
      animation-delay: 0s;
    }
    
    .drip-2 {
      animation: drip 2s infinite ease-in;
      animation-delay: 0.5s;
    }
    
    .drip-3 {
      animation: drip 2s infinite ease-in;
      animation-delay: 1s;
    }
    
    .spinner {
      animation: rotate 2s infinite linear;
      transform-origin: center;
    }
  </style>
  
  <!-- Circular Background -->
  <circle cx="100" cy="100" r="90" fill="#f8f9fa" stroke="#e74c3c" stroke-width="4" stroke-dasharray="10 5" class="spinner"/>
  
  <!-- Blood Drop -->
  <path d="M100 30 C90 80 70 100 70 130 C70 155 85 180 100 180 C115 180 130 155 130 130 C130 100 110 80 100 30 Z" fill="#e74c3c" class="blood-drop"/>
  
  <!-- Drips -->
  <path d="M100 180 L100 190 C100 195 95 200 90 200 C85 200 80 195 80 190 L80 185 Z" fill="#e74c3c" class="drip-1"/>
  <path d="M100 180 L100 190 C100 195 105 200 110 200 C115 200 120 195 120 190 L120 185 Z" fill="#e74c3c" class="drip-2"/>
  <path d="M100 180 L100 190 C100 195 100 200 100 200 C100 200 100 195 100 190 L100 185 Z" fill="#e74c3c" class="drip-3"/>
  
  <!-- Reflection -->
  <path d="M85 130 C85 110 90 90 95 70 C90 90 85 110 85 130 C85 145 90 160 100 170 C90 160 85 145 85 130 Z" fill="#fff" opacity="0.3"/>
</svg>